<svg xmlns="http://www.w3.org/2000/svg" viewBox="0 0 256 256" role="img" aria-labelledby="title desc">
  <title id="title">Small cute flower icon</title>
  <desc id="desc">A small pink flower with green leaves.</desc>
  <g fill="none" stroke-linecap="round" stroke-linejoin="round">
    <path d="M128 139v75" stroke="#5F9F54" stroke-width="14"/>
    <path d="M126 183c-29-29-61-30-83-14 22 28 56 34 83 14z" fill="#8CC47E" stroke="#5F9F54" stroke-width="8"/>
    <path d="M131 190c29-28 60-29 82-12-20 29-55 33-82 12z" fill="#8CC47E" stroke="#5F9F54" stroke-width="8"/>
  </g>
  <g>
    <ellipse cx="128" cy="73" rx="33" ry="43" fill="#F48BA0"/>
    <ellipse cx="84" cy="105" rx="34" ry="43" fill="#F48BA0" transform="rotate(-70 84 105)"/>
    <ellipse cx="172" cy="105" rx="34" ry="43" fill="#F48BA0" transform="rotate(70 172 105)"/>
    <ellipse cx="100" cy="155" rx="34" ry="43" fill="#F48BA0" transform="rotate(35 100 155)"/>
    <ellipse cx="156" cy="155" rx="34" ry="43" fill="#F48BA0" transform="rotate(-35 156 155)"/>
    <circle cx="128" cy="118" r="35" fill="#FFD250" stroke="#E9A832" stroke-width="8"/>
    <circle cx="118" cy="108" r="6" fill="#FFEAA0" opacity="0.7"/>
  </g>
</svg>